<svg id="アテンションマップ.svg" xmlns="http://www.w3.org/2000/svg" width="20" height="16" viewBox="0 0 20 16">
  <defs>
    <style>
      .cls-1 {
        fill: none;
      }

      .cls-2, .cls-3 {
        fill: #fff;
      }

      .cls-3 {
        fill-rule: evenodd;
      }
    </style>
  </defs>
  <rect id="長方形_10_のコピー_2" data-name="長方形 10 のコピー 2" class="cls-1" width="20" height="16"/>
  <circle id="楕円形_2" data-name="楕円形 2" class="cls-2" cx="10.016" cy="8.047" r="2.391"/>
  <path id="シェイプ_5" data-name="シェイプ 5" class="cls-3" d="M10,13.185c-4.146,0-7.376-4.633-7.512-4.831a0.625,0.625,0,0,1,0-.708C2.624,7.449,5.855,2.815,10,2.815s7.377,4.633,7.512,4.831a0.625,0.625,0,0,1,0,.708C17.377,8.551,14.146,13.185,10,13.185ZM3.783,8c0.8,1.027,3.333,3.935,6.217,3.935S15.415,9.028,16.217,8C15.414,6.973,12.884,4.065,10,4.065S4.585,6.972,3.783,8Z"/>
</svg>
