<svg id="ヒートマップ2.svg" xmlns="http://www.w3.org/2000/svg" width="20" height="16" viewBox="0 0 20 16">
  <defs>
    <style>
      .cls-1 {
        fill: none;
      }

      .cls-2 {
        fill: #fff;
        fill-rule: evenodd;
      }
    </style>
  </defs>
  <rect id="長方形_10" data-name="長方形 10" class="cls-1" width="20" height="16"/>
  <g id="グループ_3_のコピー_3" data-name="グループ 3 のコピー 3">
    <path id="楕円形_3_のコピー" data-name="楕円形 3 のコピー" class="cls-2" d="M12.94,6.829a4.384,4.384,0,0,0,.068-0.672,4.414,4.414,0,1,0-4.414,4.43c0.03,0,.058-0.008.088-0.009l0.134,0.987c-0.075,0-.146.022-0.221,0.022a5.43,5.43,0,1,1,5.414-5.43,5.382,5.382,0,0,1-.19,1.35ZM5.363,6.156a3.223,3.223,0,0,1,6.44-.2L8.536,3.431a0.476,0.476,0,0,0-.763.441L8.521,9.389A3.235,3.235,0,0,1,5.363,6.156Z"/>
    <path id="楕円形_4" data-name="楕円形 4" class="cls-2" d="M15.4,8.727L12.35,6.373A2.253,2.253,0,1,1,15.4,8.727Z"/>
    <path id="楕円形_4_のコピー" data-name="楕円形 4 のコピー" class="cls-2" d="M4.633,11.078a1.82,1.82,0,1,1-1.82,1.82A1.82,1.82,0,0,1,4.633,11.078Z"/>
    <path id="シェイプ_7" data-name="シェイプ 7" class="cls-2" d="M15.954,14.65l-2.109,1.218a0.5,0.5,0,0,1-.683-0.183L12,13.668l-2,1.8a0.508,0.508,0,0,1-.507.1,0.5,0.5,0,0,1-.323-0.4L7.592,3.562a0.5,0.5,0,0,1,.245-0.5h0a0.5,0.5,0,0,1,.555.037l9.313,7.186a0.5,0.5,0,0,1-.156.874l-2.569.806,1.156,2A0.5,0.5,0,0,1,15.954,14.65Zm-2.176.1,1.243-.718L13.8,11.924a0.5,0.5,0,0,1,.284-0.728l2.249-.705L8.746,4.635l1.281,9.457,1.76-1.58A0.509,0.509,0,0,1,12.2,12.39a0.5,0.5,0,0,1,.355.244Z"/>
  </g>
</svg>
