<svg id="カウントマップ2.svg" xmlns="http://www.w3.org/2000/svg" width="20" height="15.938" viewBox="0 0 20 15.938">
  <defs>
    <style>
      .cls-1 {
        fill: none;
      }

      .cls-2 {
        fill: #fff;
        fill-rule: evenodd;
      }
    </style>
  </defs>
  <rect id="長方形_10" data-name="長方形 10" class="cls-1" x="-1" y="-2" width="20" height="16"/>
  <g id="グループ_4_のコピー" data-name="グループ 4 のコピー">
    <path id="シェイプ_2" data-name="シェイプ 2" class="cls-2" d="M4.279,10.011a0.255,0.255,0,0,1-.316-0.244V4.986H2.709a0.255,0.255,0,0,1-.316-0.244V4.261a0.255,0.255,0,0,1,.316-0.244H3.616c0.346,0,.346-0.108.346-0.188V3.217a0.255,0.255,0,0,1,.316-0.244H4.711a0.255,0.255,0,0,1,.316.244v6.55a0.255,0.255,0,0,1-.316.244H4.279Z"/>
    <path id="シェイプ_2_のコピー" data-name="シェイプ 2 のコピー" class="cls-2" d="M6.288,10a0.255,0.255,0,0,1-.316-0.244V9.54a0.354,0.354,0,0,1,.063-0.232L8.715,5.935a1.571,1.571,0,0,0,.4-0.967V4.74c0-.427-0.076-0.754-1.038-0.754s-1.038.4-1.038,0.832V5.526a0.255,0.255,0,0,1-.316.244H6.288a0.255,0.255,0,0,1-.316-0.244V4.537c0-.909.352-1.55,2.1-1.55s2.1,0.563,2.1,1.472V4.92a2.232,2.232,0,0,1-.54,1.336l-2.2,2.772H9.861a0.255,0.255,0,0,1,.317.242V9.751A0.256,0.256,0,0,1,9.861,10H6.288Z"/>
    <path id="シェイプ_2_のコピー_2" data-name="シェイプ 2 のコピー 2" class="cls-2" d="M14.82,6.067L14.089,5.5A1.671,1.671,0,0,0,14.1,5.259V4.74c0-.427-0.077-0.754-1.038-0.754a1.6,1.6,0,0,0-.765.136l-0.44-.339a0.446,0.446,0,0,0-.714.413l0.174,1.288H11.281a0.255,0.255,0,0,1-.315-0.244v-0.8c0-.909.351-1.472,2.1-1.472s2.1,0.563,2.1,1.472v0.6A1.348,1.348,0,0,1,14.82,6.067ZM11.281,7.2h0.274l0.355,2.619a1.518,1.518,0,0,1-.944-1.578v-0.8A0.255,0.255,0,0,1,11.281,7.2Z"/>
    <path id="長方形_6_のコピー" data-name="長方形 6 のコピー" class="cls-2" d="M17,7.751V3.769a1.775,1.775,0,0,0-1.775-1.775H2.774A1.775,1.775,0,0,0,1,3.769V9.226A1.775,1.775,0,0,0,2.774,11h9.294L12.2,12H2a2,2,0,0,1-2-2V3.031a2,2,0,0,1,2-2H16a2,2,0,0,1,2,2V8.52Z"/>
  </g>
  <path id="シェイプ_7_のコピー" data-name="シェイプ 7 のコピー" class="cls-2" d="M18.954,14.65l-2.109,1.218a0.5,0.5,0,0,1-.683-0.183L15,13.668l-2,1.8a0.508,0.508,0,0,1-.507.1,0.5,0.5,0,0,1-.322-0.4l-1.571-11.6a0.5,0.5,0,0,1,.245-0.5h0a0.5,0.5,0,0,1,.556.037l9.313,7.186a0.5,0.5,0,0,1-.156.874l-2.569.806,1.156,2A0.5,0.5,0,0,1,18.954,14.65Zm-2.176.1,1.243-.718L16.8,11.924a0.5,0.5,0,0,1,.284-0.728l2.249-.705L11.747,4.635l1.281,9.457,1.76-1.58A0.509,0.509,0,0,1,15.2,12.39a0.5,0.5,0,0,1,.355.244Z"/>
</svg>
