<svg width="18" height="18" viewBox="0 0 20 20" fill="none" xmlns="http://www.w3.org/2000/svg">
<g id="clock">
<mask id="mask0_67_32635" style="mask-type:luminance" maskUnits="userSpaceOnUse" x="1" y="1" width="18" height="18">
<path id="icon/action/schedule_24px" fill-rule="evenodd" clip-rule="evenodd" d="M9.94263 1.66669C5.36518 1.66669 1.65845 5.40002 1.65845 10C1.65845 14.6 5.36518 18.3334 9.94263 18.3334C14.5284 18.3334 18.2434 14.6 18.2434 10C18.2434 5.40002 14.5284 1.66669 9.94263 1.66669ZM9.95092 16.6667C6.28565 16.6667 3.31694 13.6834 3.31694 10C3.31694 6.31669 6.28565 3.33335 9.95092 3.33335C13.6162 3.33335 16.5849 6.31669 16.5849 10C16.5849 13.6834 13.6162 16.6667 9.95092 16.6667ZM9.12167 5.83335H10.3655V10.2084L14.0972 12.4334L13.4752 13.4584L9.12167 10.8334V5.83335Z" fill="white"/>
</mask>
<g mask="url(#mask0_67_32635)">
<rect id="Rectangle" width="19.9019" height="20" fill="white"/>
</g>
</g>
</svg>
