<svg width="18" height="18" viewBox="0 0 20 20" fill="none" xmlns="http://www.w3.org/2000/svg">
  <!-- 吹き出し（アウトライン） -->
  <path fill-rule="evenodd" clip-rule="evenodd" d="M3 2.5C1.89543 2.5 1 3.39543 1 4.5V12.5C1 13.6046 1.89543 14.5 3 14.5H6V18L10.5 14.5H17C18.1046 14.5 19 13.6046 19 12.5V4.5C19 3.39543 18.1046 2.5 17 2.5H3ZM3 4.2H17C17.1657 4.2 17.3 4.33431 17.3 4.5V12.5C17.3 12.6657 17.1657 12.8 17 12.8H10.1L7.7 14.7V12.8H3C2.83432 12.8 2.7 12.6657 2.7 12.5V4.5C2.7 4.33431 2.83432 4.2 3 4.2Z" fill="white"/>
  <!-- ドット（タイピングインジケーター） -->
  <circle cx="7" cy="8.5" r="1.2" fill="white"/>
  <circle cx="10" cy="8.5" r="1.2" fill="white"/>
  <circle cx="13" cy="8.5" r="1.2" fill="white"/>
</svg>
