<svg width="18" height="18" viewBox="0 0 15 18" fill="none" xmlns="http://www.w3.org/2000/svg">
<g id="Group 98">
<path id="Vector" d="M6.42858 11.5714H7.71429V14.1429H6.42858V11.5714ZM9.64287 10.2857H10.9286V14.1429H9.64287V10.2857ZM3.21429 7.71429H4.50001V14.1429H3.21429V7.71429Z" fill="white"/>
<path id="Vector_2" d="M12.8571 1.92857H10.9286V1.28571C10.9286 0.944722 10.7931 0.617695 10.552 0.376577C10.3109 0.135459 9.98385 0 9.64286 0H4.5C4.15901 0 3.83198 0.135459 3.59086 0.376577C3.34974 0.617695 3.21429 0.944722 3.21429 1.28571V1.92857H1.28571C0.944722 1.92857 0.617695 2.06403 0.376577 2.30515C0.135459 2.54627 0 2.87329 0 3.21429V16.7143C0 17.0553 0.135459 17.3823 0.376577 17.6234C0.617695 17.8645 0.944722 18 1.28571 18H12.8571C13.1981 18 13.5252 17.8645 13.7663 17.6234C14.0074 17.3823 14.1429 17.0553 14.1429 16.7143V3.21429C14.1429 2.87329 14.0074 2.54627 13.7663 2.30515C13.5252 2.06403 13.1981 1.92857 12.8571 1.92857ZM4.5 1.28571H9.64286V3.85714H4.5V1.28571ZM12.8571 16.7143H1.28571V3.21429H3.21429V5.14286H10.9286V3.21429H12.8571V16.7143Z" fill="white"/>
</g>
</svg>
