<svg width="18" height="18" viewBox="0 0 24 24" fill="none" xmlns="http://www.w3.org/2000/svg">
<g id="Property 1=help">
<path id="Vector" d="M11.5 17.3333H13.1667V15.6667H11.5V17.3333ZM12.3333 4C7.73333 4 4 7.73333 4 12.3333C4 16.9333 7.73333 20.6667 12.3333 20.6667C16.9333 20.6667 20.6667 16.9333 20.6667 12.3333C20.6667 7.73333 16.9333 4 12.3333 4ZM12.3333 19C8.65833 19 5.66667 16.0083 5.66667 12.3333C5.66667 8.65833 8.65833 5.66667 12.3333 5.66667C16.0083 5.66667 19 8.65833 19 12.3333C19 16.0083 16.0083 19 12.3333 19ZM12.3333 7.33333C10.4917 7.33333 9 8.825 9 10.6667H10.6667C10.6667 9.75 11.4167 9 12.3333 9C13.25 9 14 9.75 14 10.6667C14 12.3333 11.5 12.125 11.5 14.8333H13.1667C13.1667 12.9583 15.6667 12.75 15.6667 10.6667C15.6667 8.825 14.175 7.33333 12.3333 7.33333Z" fill="white"/>
</g>
</svg>
