<svg xmlns="http://www.w3.org/2000/svg" xmlns:xlink="http://www.w3.org/1999/xlink" width="18" zoomAndPan="magnify" viewBox="0 0 30 30.000001" height="18" preserveAspectRatio="xMidYMid meet" version="1.0"><defs><clipPath id="1420cc2e2e"><path d="M 0.957031 0.472656 L 29 0.472656 L 29 28.78125 L 0.957031 28.78125 Z M 0.957031 0.472656 " clip-rule="nonzero"/></clipPath></defs><g clip-path="url(#1420cc2e2e)"><path fill="#ffffff" d="M 27.792969 12.90625 L 13.328125 27.371094 C 13.125 27.574219 12.796875 27.574219 12.597656 27.371094 L 2.140625 16.914062 C 2.042969 16.816406 1.988281 16.6875 1.988281 16.550781 C 1.988281 16.414062 2.042969 16.28125 2.140625 16.183594 L 16.605469 1.71875 C 16.722656 1.601562 16.886719 1.546875 17.050781 1.574219 L 26.117188 2.960938 C 26.34375 2.996094 26.515625 3.167969 26.550781 3.394531 L 27.9375 12.464844 C 27.960938 12.625 27.90625 12.789062 27.792969 12.90625 Z M 28.957031 12.308594 L 27.570312 3.238281 C 27.46875 2.566406 26.945312 2.042969 26.273438 1.941406 L 17.203125 0.554688 C 16.71875 0.480469 16.222656 0.644531 15.875 0.988281 L 1.410156 15.453125 C 1.117188 15.746094 0.957031 16.136719 0.957031 16.550781 C 0.957031 16.960938 1.117188 17.351562 1.410156 17.644531 L 11.867188 28.101562 C 12.167969 28.402344 12.566406 28.554688 12.960938 28.554688 C 13.359375 28.554688 13.753906 28.402344 14.058594 28.101562 L 28.523438 13.636719 C 28.871094 13.289062 29.03125 12.792969 28.957031 12.308594 " fill-opacity="1" fill-rule="nonzero"/></g><path fill="#ffffff" d="M 22.667969 9.234375 C 22.007812 9.890625 20.9375 9.890625 20.277344 9.234375 C 19.621094 8.574219 19.621094 7.5 20.277344 6.84375 C 20.609375 6.511719 21.042969 6.347656 21.472656 6.347656 C 21.90625 6.347656 22.339844 6.511719 22.667969 6.84375 C 23.328125 7.5 23.328125 8.574219 22.667969 9.234375 Z M 19.550781 6.113281 C 18.488281 7.175781 18.488281 8.902344 19.550781 9.964844 C 20.078125 10.492188 20.777344 10.757812 21.472656 10.757812 C 22.171875 10.757812 22.867188 10.492188 23.398438 9.964844 C 24.460938 8.902344 24.460938 7.175781 23.398438 6.113281 C 22.339844 5.050781 20.609375 5.050781 19.550781 6.113281 " fill-opacity="1" fill-rule="nonzero"/><path fill="#ffffff" d="M 11.835938 12.261719 C 11.636719 12.0625 11.308594 12.0625 11.109375 12.261719 C 10.90625 12.464844 10.90625 12.789062 11.109375 12.992188 L 16.519531 18.402344 C 16.621094 18.503906 16.75 18.554688 16.882812 18.554688 C 17.015625 18.554688 17.148438 18.503906 17.25 18.402344 C 17.449219 18.203125 17.449219 17.875 17.25 17.675781 L 11.835938 12.261719 " fill-opacity="1" fill-rule="nonzero"/><path fill="#ffffff" d="M 9.648438 14.453125 C 9.449219 14.25 9.121094 14.25 8.917969 14.453125 C 8.71875 14.652344 8.71875 14.980469 8.917969 15.179688 L 12.910156 19.175781 C 13.011719 19.273438 13.144531 19.324219 13.277344 19.324219 C 13.410156 19.324219 13.539062 19.273438 13.640625 19.175781 C 13.84375 18.972656 13.84375 18.644531 13.640625 18.445312 L 9.648438 14.453125 " fill-opacity="1" fill-rule="nonzero"/></svg>