<svg width="18" height="18" viewBox="0 0 18 18" fill="none" xmlns="http://www.w3.org/2000/svg">
<g id="Group 99">
<path id="Vector" d="M1.28571 0H0V16.7143C0 17.0553 0.135459 17.3823 0.376577 17.6234C0.617695 17.8645 0.944722 18 1.28571 18H18V16.7143H1.28571V0Z" fill="white"/>
<path id="Vector_2" d="M18 4.5H13.5V5.78571H15.8078L10.9286 10.665L8.1707 7.90071C8.11093 7.84046 8.03983 7.79264 7.9615 7.76C7.88316 7.72736 7.79913 7.71056 7.71427 7.71056C7.6294 7.71056 7.54538 7.72736 7.46704 7.76C7.3887 7.79264 7.3176 7.84046 7.25784 7.90071L2.57141 12.5936L3.47784 13.5L7.71427 9.26357L10.4721 12.0279C10.5319 12.0881 10.603 12.1359 10.6813 12.1686C10.7597 12.2012 10.8437 12.218 10.9286 12.218C11.0134 12.218 11.0974 12.2012 11.1758 12.1686C11.2541 12.1359 11.3252 12.0881 11.385 12.0279L16.7143 6.69214V9H18V4.5Z" fill="white"/>
</g>
</svg>
