<svg width="18" height="18" viewBox="0 0 18 18" fill="none" xmlns="http://www.w3.org/2000/svg">
<g id="icons" opacity="1.0">
<path id="Vector" d="M10.25 11.5933V11.8125V14.5H10.375V11.2696L9.39645 10.2911L9.20864 10.1032L9.25911 9.84249L9.59661 8.09874L9.81856 6.95199L10.4951 7.90415C10.7868 8.31472 11.1588 8.64181 11.6172 8.88767L10.25 11.5933ZM10.25 11.5933L10.0888 11.4448L9.13259 10.5636L8.4973 9.97811L8.30614 10.8206L7.9104 12.5648L5.22834 11.9597L5.25374 11.8464L7.29778 12.3006L7.79809 12.4118L7.89687 11.9089L8.72187 7.70887L8.90029 6.80056L8.04285 7.14935L6.9366 7.59935L6.625 7.72611V8.0625V9.25M10.25 11.5933L6.625 9.25M6.625 9.25H6.5V7.64712L9.16695 6.547C9.18003 6.54505 9.19986 6.54251 9.22788 6.53971C9.29412 6.53308 9.38685 6.52684 9.50868 6.52141C9.55279 6.53519 9.59481 6.55345 9.63529 6.57632L9.63695 6.57725C9.66143 6.59096 9.68171 6.60914 9.701 6.64L9.71258 6.65853L9.72574 6.67598L10.6445 7.89473L10.6445 7.89475L10.6474 7.89861C10.9416 8.28102 11.3023 8.58281 11.7268 8.79842C12.0105 8.94296 12.3106 9.03876 12.625 9.08733V9.21538C12.2621 9.1635 11.9273 9.05362 11.6175 8.88785L6.625 9.25ZM9.68246 4.94335L9.68165 4.94254C9.55773 4.81891 9.5 4.68121 9.5 4.5C9.5 4.31879 9.55773 4.18109 9.68165 4.05746L9.68246 4.05665C9.80609 3.93273 9.94379 3.875 10.125 3.875C10.3062 3.875 10.4439 3.93273 10.5675 4.05665L10.5684 4.05746C10.6923 4.18109 10.75 4.31879 10.75 4.5C10.75 4.68121 10.6923 4.81891 10.5683 4.94254L10.5675 4.94335C10.4439 5.06727 10.3062 5.125 10.125 5.125C9.94379 5.125 9.80609 5.06727 9.68246 4.94335ZM14.25 3.25H12.5V2.75H15.25V5.5H14.75V3.75V3.25H14.25ZM3.75 14.75H5.5V15.25H2.75V12.5H3.25V14.25V14.75H3.75ZM14.75 14.25V12.5H15.25V15.25H12.5V14.75H14.25H14.75V14.25ZM3.25 3.75V5.5H2.75V2.75H5.5V3.25H3.75H3.25V3.75Z" fill="#1E1E1E" stroke="white"/>
</g>
</svg>
