<svg width="18" height="18" viewBox="0 0 18 18" fill="none" xmlns="http://www.w3.org/2000/svg">
<g id="icons" opacity="1.0">
<path id="Vector" d="M15.8782 15.209L15.8734 15.217L15.8688 15.2252C15.8646 15.2328 15.8583 15.2391 15.8508 15.2435C15.8433 15.2479 15.8347 15.2501 15.826 15.25L15.826 15.25H15.8203H2.17969V15.25L2.17405 15.25C2.16533 15.2501 2.15675 15.2479 2.14921 15.2435C2.14167 15.2391 2.13545 15.2328 2.1312 15.2252L2.12664 15.217L2.12177 15.209C2.11783 15.2025 2.11575 15.1951 2.11575 15.1875C2.11575 15.1799 2.11783 15.1725 2.12177 15.166L2.12186 15.166L2.12695 15.1573C3.1147 13.4557 4.69574 12.1786 6.56696 11.5709L7.61695 11.2298L6.66806 10.6656C5.80911 10.1548 5.14163 9.37613 4.76813 8.44922C4.39464 7.5223 4.3358 6.4984 4.60066 5.5348C4.86552 4.57121 5.43942 3.72122 6.23419 3.11542C7.02897 2.50962 8.00067 2.18152 9 2.18152C9.99933 2.18152 10.971 2.50962 11.7658 3.11542C12.5606 3.72122 13.1345 4.57121 13.3993 5.5348C13.6642 6.4984 13.6054 7.5223 13.2319 8.44922C12.8584 9.37613 12.1909 10.1548 11.3319 10.6656L10.3831 11.2298L11.433 11.5709C13.3043 12.1786 14.8853 13.4557 15.873 15.1573L15.873 15.1573L15.8782 15.166C15.8822 15.1725 15.8843 15.1799 15.8843 15.1875C15.8843 15.1951 15.8822 15.2025 15.8782 15.209Z" stroke="white"/>
</g>
</svg>
