<svg width="18" height="18" viewBox="0 0 24 24" fill="none" xmlns="http://www.w3.org/2000/svg">
<g id="Property 1=gear">
<path id="icon/image/brightness_7_24px" fill-rule="evenodd" clip-rule="evenodd" d="M18.366 9.39745V5.64694H14.634L12 3L9.36605 5.64694H5.63395V9.39745L3 12.0444L5.63395 14.6913V18.4418H9.36605L12 21.0888L14.634 18.4418H18.366V14.6913L21 12.0444L18.366 9.39745ZM16.7746 14.0276V16.8425H13.9735L12 18.8257L10.0266 16.8425H7.22551V14.0276L5.25203 12.0444L7.22551 10.0612V7.24632H10.0266L12 5.26311L13.9735 7.24632H16.7746V10.0612L18.7481 12.0444L16.7746 14.0276ZM7.62335 12.0444C7.62335 9.62136 9.58887 7.64614 12 7.64614C14.4112 7.64614 16.3767 9.62136 16.3767 12.0444C16.3767 14.4674 14.4112 16.4426 12 16.4426C9.58887 16.4426 7.62335 14.4674 7.62335 12.0444ZM12 14.8433C10.4641 14.8433 9.21481 13.5878 9.21481 12.0444C9.21481 10.501 10.4641 9.24551 12 9.24551C13.5358 9.24551 14.7851 10.501 14.7851 12.0444C14.7851 13.5878 13.5358 14.8433 12 14.8433ZM10.4085 12.0444C10.4085 11.1611 11.121 10.445 12 10.445C12.8789 10.445 13.5915 11.1611 13.5915 12.0444C13.5915 12.9277 12.8789 13.6438 12 13.6438C11.121 13.6438 10.4085 12.9277 10.4085 12.0444Z" fill="white"/>
</g>
</svg>
