<svg xmlns="http://www.w3.org/2000/svg" xmlns:xlink="http://www.w3.org/1999/xlink" width="18" zoomAndPan="magnify" viewBox="0 0 30 30.000001" height="18" preserveAspectRatio="xMidYMid meet" version="1.0"><defs><clipPath id="cd60c26e6f"><path d="M 0.910156 0.425781 L 22 0.425781 L 22 22 L 0.910156 22 Z M 0.910156 0.425781 " clip-rule="nonzero"/></clipPath><clipPath id="e4872889e3"><path d="M 8 7 L 29.214844 7 L 29.214844 28.730469 L 8 28.730469 Z M 8 7 " clip-rule="nonzero"/></clipPath></defs><path fill="#ffffff" d="M 9.449219 15.796875 L 12.863281 19.210938 L 20.550781 11.527344 L 18.84375 9.820312 L 12.863281 15.796875 L 11.15625 14.089844 L 9.449219 15.796875 " fill-opacity="1" fill-rule="nonzero"/><path fill="#ffffff" d="M 22.386719 21.222656 C 22.171875 21.460938 21.945312 21.6875 21.707031 21.90625 C 21.453125 22.136719 21.441406 22.53125 21.683594 22.773438 C 21.914062 23.003906 22.28125 23.007812 22.519531 22.792969 C 22.648438 22.671875 22.777344 22.546875 22.90625 22.421875 C 23.03125 22.296875 23.15625 22.164062 23.273438 22.035156 C 23.492188 21.796875 23.484375 21.429688 23.257812 21.203125 C 23.015625 20.957031 22.617188 20.96875 22.386719 21.222656 " fill-opacity="1" fill-rule="nonzero"/><path fill="#ffffff" d="M 7.09375 6.609375 C 6.964844 6.734375 6.84375 6.863281 6.722656 6.996094 C 6.507812 7.234375 6.511719 7.601562 6.742188 7.828125 C 6.984375 8.070312 7.378906 8.0625 7.609375 7.808594 C 7.828125 7.570312 8.054688 7.34375 8.292969 7.125 C 8.546875 6.894531 8.554688 6.5 8.3125 6.257812 C 8.085938 6.027344 7.71875 6.023438 7.480469 6.238281 C 7.347656 6.359375 7.21875 6.484375 7.09375 6.609375 " fill-opacity="1" fill-rule="nonzero"/><path fill="#ffffff" d="M 14.890625 24.5 C 9.480469 24.441406 5.074219 20.035156 5.015625 14.625 C 5 13.191406 5.289062 11.824219 5.820312 10.585938 C 5.917969 10.363281 5.867188 10.101562 5.691406 9.925781 C 5.390625 9.625 4.882812 9.722656 4.714844 10.113281 C 4.128906 11.488281 3.816406 12.976562 3.816406 14.515625 C 3.816406 17.5 4.980469 20.308594 7.09375 22.421875 C 9.203125 24.535156 12.011719 25.695312 15 25.695312 C 16.539062 25.695312 18.027344 25.386719 19.402344 24.800781 C 19.792969 24.632812 19.890625 24.121094 19.589844 23.820312 C 19.414062 23.648438 19.152344 23.597656 18.925781 23.695312 C 17.6875 24.226562 16.324219 24.515625 14.890625 24.5 " fill-opacity="1" fill-rule="nonzero"/><path fill="#ffffff" d="M 22.90625 6.609375 C 20.792969 4.496094 17.984375 3.335938 15 3.335938 C 13.460938 3.335938 11.96875 3.644531 10.597656 4.230469 C 10.207031 4.398438 10.109375 4.910156 10.410156 5.210938 C 10.585938 5.382812 10.847656 5.433594 11.070312 5.335938 C 12.308594 4.804688 13.675781 4.515625 15.109375 4.53125 C 20.519531 4.589844 24.925781 8.996094 24.984375 14.40625 C 25 15.839844 24.710938 17.207031 24.179688 18.441406 C 24.082031 18.667969 24.132812 18.929688 24.304688 19.105469 C 24.605469 19.40625 25.117188 19.308594 25.285156 18.917969 C 25.871094 17.542969 26.179688 16.054688 26.179688 14.515625 C 26.179688 11.527344 25.015625 8.722656 22.90625 6.609375 " fill-opacity="1" fill-rule="nonzero"/><path fill="#ffffff" d="M 23.699219 4.15625 C 23.460938 4.398438 23.46875 4.789062 23.71875 5.019531 C 23.964844 5.25 24.207031 5.484375 24.433594 5.734375 C 24.664062 5.980469 25.054688 5.988281 25.296875 5.746094 C 25.523438 5.519531 25.53125 5.152344 25.3125 4.914062 C 25.058594 4.648438 24.800781 4.386719 24.527344 4.140625 C 24.292969 3.921875 23.925781 3.929688 23.699219 4.15625 " fill-opacity="1" fill-rule="nonzero"/><path fill="#ffffff" d="M 4.640625 23.214844 C 4.414062 23.445312 4.40625 23.808594 4.625 24.046875 C 4.871094 24.316406 5.128906 24.578125 5.398438 24.828125 C 5.636719 25.046875 6.003906 25.039062 6.230469 24.8125 C 6.46875 24.570312 6.464844 24.183594 6.214844 23.949219 C 5.96875 23.722656 5.734375 23.480469 5.503906 23.234375 C 5.273438 22.984375 4.882812 22.976562 4.640625 23.214844 " fill-opacity="1" fill-rule="nonzero"/><g clip-path="url(#cd60c26e6f)"><path fill="#ffffff" d="M 3.582031 20.507812 C 2.640625 18.71875 2.109375 16.679688 2.109375 14.515625 C 2.109375 7.382812 7.867188 1.625 15 1.625 C 17.164062 1.625 19.203125 2.15625 20.992188 3.097656 C 21.222656 3.222656 21.507812 3.175781 21.691406 2.992188 C 21.976562 2.707031 21.90625 2.226562 21.550781 2.039062 C 19.59375 1.007812 17.363281 0.425781 15 0.425781 C 7.210938 0.425781 0.910156 6.726562 0.910156 14.515625 C 0.910156 16.878906 1.492188 19.109375 2.523438 21.066406 C 2.710938 21.421875 3.191406 21.492188 3.476562 21.207031 C 3.660156 21.023438 3.703125 20.738281 3.582031 20.507812 " fill-opacity="1" fill-rule="nonzero"/></g><g clip-path="url(#e4872889e3)"><path fill="#ffffff" d="M 26.371094 8.441406 C 27.339844 10.25 27.890625 12.320312 27.890625 14.515625 C 27.890625 21.558594 22.042969 27.40625 15 27.40625 C 12.804688 27.40625 10.734375 26.855469 8.925781 25.886719 C 8.695312 25.765625 8.410156 25.808594 8.222656 25.996094 C 7.941406 26.277344 8.007812 26.757812 8.359375 26.945312 C 10.339844 28.003906 12.597656 28.605469 15 28.605469 C 22.800781 28.605469 29.089844 22.316406 29.089844 14.515625 C 29.089844 12.113281 28.488281 9.855469 27.429688 7.878906 C 27.242188 7.523438 26.761719 7.457031 26.480469 7.738281 C 26.292969 7.925781 26.25 8.210938 26.371094 8.441406 " fill-opacity="1" fill-rule="nonzero"/></g></svg>