<svg width="18" height="18" viewBox="0 0 18 18" fill="none" xmlns="http://www.w3.org/2000/svg">
<g id="icons" opacity="1.0">
<path id="Vector" d="M11.0574 1.31226L11.0566 1.31226C11.0401 1.31226 11.0242 1.31882 11.0125 1.33051C10.599 1.74428 10.4968 2.25989 10.4967 2.66681C10.4972 2.81246 10.5099 2.95781 10.5345 3.10136L10.5784 3.35655L10.3952 3.53962L6.8695 7.06424L6.6697 7.26397L6.39552 7.1959C6.04991 7.11009 5.69751 7.05441 5.34228 7.02947C4.5922 6.97935 3.67398 7.0783 3.05811 7.69413C3.05809 7.69415 3.05807 7.69417 3.05805 7.69419M11.0574 1.31226L2.7045 8.13601C2.59905 8.03052 2.53981 7.88747 2.53981 7.73832C2.53981 7.58916 2.59905 7.44612 2.7045 7.34063L3.05805 7.69419M11.0574 1.31226C11.0656 1.31224 11.0737 1.31385 11.0813 1.31698C11.0889 1.32009 11.0957 1.32465 11.1015 1.3304C11.1016 1.33043 11.1016 1.33047 11.1016 1.33051L16.6699 6.89876M11.0574 1.31226L16.6699 6.89876M3.05805 7.69419C3.04637 7.7059 3.03981 7.72177 3.03981 7.73832C3.03981 7.75489 3.04639 7.77079 3.05811 7.78251L3.05812 7.78252L6.23962 10.9651L6.59304 11.3187L6.23955 11.6722L2.6598 15.2519L2.65889 15.2528C2.6173 15.2942 2.50721 15.4342 2.3832 15.6166C2.56562 15.4926 2.70597 15.3823 2.74807 15.3402L6.32782 11.7605L6.68131 11.407L7.03487 11.7604L10.2175 14.9419L10.2175 14.9419C10.2292 14.9536 10.2451 14.9602 10.2617 14.9602C10.2782 14.9602 10.2941 14.9536 10.3058 14.942L3.05805 7.69419ZM16.6699 6.89876C16.6699 6.89877 16.6699 6.89879 16.6699 6.89881M16.6699 6.89876L16.6699 6.89881M16.6699 6.89881C16.6816 6.91052 16.6882 6.9264 16.6882 6.94294C16.6882 6.95949 16.6816 6.97536 16.6699 6.98708C16.6699 6.9871 16.6699 6.98711 16.6699 6.98713L16.6699 6.89881Z" stroke="white"/>
</g>
</svg>
